<svg xmlns="http://www.w3.org/2000/svg" fill="none" viewBox="0 0 24 32"><path fill="#000" d="M0 2h1v25H0zm23 0h1v25h-1zM1 1h1v1H1zm21 0h1v1h-1zM1 27h21v1H1zM2 0h20v1H2zm0 31h21v1H2zm8-18h1v1h-1zm4-5h1v1h-1zM8 8h1v1H8zm0-1h2v1H8zm6 0h2v1h-2zm-2 4h2v1h-2zm-1 3h3v1h-3zM3 4h1v13H3zm17 0h1v13h-1zM3 23h2v1H3zm11-1h6v1h-6zM4 3h16v1H4zm0 14h16v1H4zM1 28h1v4H1zm21-1h1v4h-1z"/><path fill="#fff" d="M2 1h20v2H2zm1 2h1v1H3zm0 14h1v1H3zm17 0h1v1h-1zm-10-3h1v1h-1zm1-1h1v1h-1zm-1-2h2v2h-2zm2 1h2v2h-2zm3-4h1v1h-1zM9 8h1v1H9zM4 4h16v3H4zm0 3h4v10H4zm12 0h4v10h-4zm-6 0h4v4h-4zM8 9h2v6H8zm6 0h2v6h-2zm-6 6h8v2H8zM2 28h20v3H2zm-1-4h22v3H1zm19-2h3v1h-3zM1 23h2v1H1zm4 0h18v1H5zm-4-1h13v1H1zM20 3h1v1h-1zm2-1h1v1h-1zM1 2h1v1H1zm0 1h2v15H1zm20 0h2v15h-2zM1 18h22v4H1z"/></svg>