<svg xmlns="http://www.w3.org/2000/svg" fill="none" viewBox="0 0 27 31"><path fill="#000" d="M3 3h1v1H3zm1 19h1v1H4zm4 2h1v1H8zm14-2h1v1h-1zM20 6h1v2h-1zm-6 22h1v2h-1zm-2 0h1v2h-1zM6 6h1v2H6zm18 14h1v3h-1zM9 9h1v1H9zM4 4h1v1H4zm1 19h1v1H5zm4 2h1v1H9zm14-2h1v1h-1zm2 0h1v1h-1zM10 10h1v1h-1zM5 5h1v1H5zM4 6h1v3H4zm18 0h1v3h-1zm-2 3h1v3h-1zM6 9h1v3H6zm5 10h1v3h-1zm4 0h1v3h-1zm1-7h1v3h-1zm-2 9h1v3h-1zm-2 0h1v3h-1zm1 3h1v3h-1zm-3-12h1v3h-1zM6 24h1v1H6zm1-8h1v1H7zm3 2h1v1h-1zm6 0h1v1h-1zm3-2h1v1h-1zm-2-7h1v1h-1zm-1 1h1v1h-1zm-1 1h1v1h-1zm-5 15h1v1h-1zm1 1h1v1h-1zm4 0h1v1h-1zm-2 3h1v1h-1zm3-4h1v1h-1zm1-1h1v1h-1zM7 25h1v1H7zm11-1h1v1h-1zm1 1h1v1h-1zm1-1h1v1h-1zm1-1h1v1h-1zm3 1h1v1h-1zm2 0h1v1h-1zm-1 1h1v1h-1zM3 23h1v1H3zm-1 1h1v1H2zm-1 1h1v1H1zm-1-1h1v1H0zm1-1h1v1H1zm1-3h1v3H2zM3 9h1v11H3zm20 0h1v11h-1zm-12 2h1v1h-1zM6 4h1v1H6zm2-2h2v1H8zM7 8h2v1H7zm11 0h2v1h-2zm-6 2h3v1h-3zm-5 2h3v1H7zm10 0h3v1h-3zM10 1h2v1h-2zm5 0h2v1h-2zM8 15h2v1H8zm0 2h2v1H8zm9-2h2v1h-2zm0 2h2v1h-2zm0-15h2v1h-2zm-5-2h3v1h-3z"/><path fill="#fff" d="M12 1h3v1h-3zM7 9h2v1H7zm1 7h2v1H8zm9 0h2v1h-2zm-6-4h5v7h-5zm7-3h2v1h-2zm2 3h3v1h-3zm-8-1h3v1h-3zm0 8h3v2h-3zm7-2h4v5h-4zM4 17h4v5H4zm4 1h2v6H8zm9 0h2v6h-2zm-1-7h4v1h-4zm-9 0h4v1H7zm-3 1h3v1H4zm0-3h2v3H4zm17 0h2v3h-2zM10 22h2v4h-2zm1 4h1v1h-1zm4 0h1v1h-1zm6-4h1v1h-1zM5 22h1v1H5zm-4 2h1v1H1zm1-1h1v1H2zm22 0h1v1h-1zm1 1h1v1h-1zM9 24h1v1H9zm8 0h1v1h-1zm-2-14h1v1h-1zm2-2h1v1h-1zm3-3h1v1h-1zm-9 5h1v1h-1zM9 8h1v1H9zM6 5h1v1H6zm0 3h1v1H6zm14 0h1v1h-1zM5 6h1v3H5zm16 0h1v3h-1zm-5 9h1v3h-1zm-6 0h1v3h-1zm0 4h1v3h-1zm6 0h1v3h-1zm-3 2h1v3h-1zm0 6h1v3h-1zm6-5h1v3h-1zM7 22h1v3H7zm-4-2h1v3H3zm20 0h1v3h-1zm-9 4h1v4h-1zm-2 0h1v4h-1zm3-2h2v4h-2zM7 10h3v1H7zm10 0h3v1h-3zm3 6h3v1h-3zM4 16h3v1H4zM8 3h2v1H8zm9 0h2v1h-2zm0 10h2v2h-2zm3 9h1v2h-1zM6 22h1v2H6zm2-9h2v2H8zm-4 0h4v3H4zm15 0h4v3h-4zM7 4h3v4H7zm10 0h3v4h-3zm-7-2h7v8h-7z"/><path fill="#000" d="M7 3h1v1H7zm12 0h1v1h-1zm1 1h1v1h-1zm1 1h1v1h-1zm2-2h1v1h-1zm-1 1h1v1h-1z"/></svg>