<svg xmlns="http://www.w3.org/2000/svg" fill="none" viewBox="0 0 25 32"><path fill="#000" d="M0 0h19v1H0zm1 31h24v1H1zM24 6h1v25h-1zm-5-5h1v1h-1z"/><path fill="#fff" d="M19 2h1v1h-1zM7 10h1v1H7zm4 0h1v1h-1zm4 0h1v1h-1zm3 0h1v1h-1zm-1 3h1v1h-1zm-5 0h1v1h-1zm-5 0h1v1H7zm-1 3h1v1H6zm8 0h1v1h-1zm4 0h1v1h-1zM1 10h3v1H1zm0 6h3v1H1zm20 0h3v1h-3zm0-6h3v1h-3zm0 3h3v1h-3zM1 13h3v1H1zm0-2h23v2H1zm0 3h23v2H1zm17-7h6v3h-6zM1 1h17v9H1zm0 16h23v14H1zM22 5h1v1h-1zm-1-1h1v2h-1zm-2-1h2v3h-2z"/><path fill="#000" d="M23 5h1v1h-1zm-3-3h1v1h-1zM4 10h3v1H4zm4 0h3v1H8zm4 0h3v1h-3zm4 0h2v1h-2zm3 0h2v1h-2zM4 16h2v1H4zm15 0h2v1h-2zM4 13h3v1H4zm4 0h4v1H8zm-1 3h7v1H7zm6-3h4v1h-4zm5 0h3v1h-3zm-3 3h3v1h-3zm6-13h1v1h-1zm1 1h1v1h-1zM0 1h1v31H0zm18 0h1v5h-1zm0 5h6v1h-6z"/></svg>