<svg xmlns="http://www.w3.org/2000/svg" fill="none" viewBox="0 0 32 32"><path fill="#000" d="M12 0h8v1h-8zm0 31h8v1h-8zM8 2h1v1H8zM5 4h1v1H5zm1-1h2v1H6zm18 0h2v1h-2zM4 5h1v1H4zM2 8h1v1H2z"/><path fill="#fff" d="M3 8h3v17H3zm-2 4h1v8H1zm5 2h1v-1H6zm11 13h3v-1h-3zm4-2h2v-1h-2zm2 3h3v-5h-3zM11 14h1v-1h-1zm12 15h1v-1h-1zm2-6h1v-1h-1zm1 4h1v-6h-1zm1-1h1v-6h-1zm1-2h1v-5h-1zm1-1h1v-5h-1zm1-3h1v-3h-1zm-4-3h1v-1h-1zm2-8h1V8h-1zm0 6h1v-1h-1zm0-1h2V9h-2zM8 30h3v-1H8zm4 1h2v-1h-2zm-1-1h3v-2h-3zm9 0h3v-5h-3zm-6 1h6v-4h-6zm-2-8h1V13h-1zm7-3h1V10h-1zm-6-9h1v-1h-1zm5 0h1v-1h-1zm2-4h1V6h-1zm5 0h1V6h-1zm1-1h1V5h-1zm0 10h2V6h-2zM23 4h1V3h-1zm0 2h3V4h-3zm-3 0h3V2h-3zM4 8h2V6H4zm1-2h1V5H5zm3-2h1V3H8zm4-2h1V1h-1zM9 4h4V2H9zm4 6h7V1h-7zm-7 3h7V4H6zM2 9h1v14H2z"/><path fill="#000" d="M23 2h1v1h-1zm-3-1h3v1h-3zm1 5h4v1h-4zm-7 4h4v1h-4zm-7 3h4v1H7zM3 25h3v1H3zm8-2h2v1h-2zm7-3h2v1h-2zm7-3h2v1h-2zM9 1h3v1H9zm17 3h1v1h-1zm1 1h1v1h-1zm1 1h1v2h-1zM3 6h1v2H3zM1 9h1v3H1zm0 11h1v3H1zm1 3h1v2H2zM30 9h1v5h-1zM0 12h1v8H0zm6 2h1v11H6zm5 0h1v9h-1zm2-3h1v12h-1zm5 0h1v9h-1zm7-4h1v10h-1zm-5 0h1v13h-1zm9 1h1v1h-1zm0 6h1v1h-1zm0 3h1v1h-1zm1-1h2v1h-2zm-2-1h1v1h-1zm0 3h1v1h-1zm-1-2h1v1h-1zm0 3h1v1h-1zm-1 1h1v1h-1zm-1 1h1v1h-1zm-5 3h1v1h-1zM7 29h1v1H7zm1-1h3v1H8zm3-1h3v1h-3zm3-1h3v1h-3zm3-1h3v1h-3zm3 5h3v1h-3zm4-2h2v1h-2zm-3-5h2v1h-2zm2-1h2v1h-2zM8 30h4v1H8zm15-1h1v1h-1zm3-2h1v1h-1zm1-1h1v1h-1zm1-2h1v2h-1zm2-4h1v3h-1zm1-3h1v3h-1zm-2 6h1v1h-1z"/></svg>