<svg xmlns="http://www.w3.org/2000/svg" fill="none" viewBox="0 0 32 32"><path fill="#000" d="M15 0h1v1h-1z"/><path fill="#fff" d="M15 1h1v1h-1zm-1 1h3v1h-3zm-3 3h3v1h-3zm-1 1h3v1h-3zM9 7h3v1H9zM7 9h3v1H7zm-1 1h3v1H6zm-2 2h3v1H4zm-1 1h3v1H3zm3 1h2v1H6zm1-1h2v1H7zm1-1h2v1H8zm2-2h2v1h-2zm1-1h2v1h-2zm2-2h2v1h-2zM2 16h4v1H2zm1 1h5v1H3zm2 2h5v1H5zm-1-1h3v1H4zm10-9h2v1h-2zm3 0h2v1h-2zm-4 1h5v1h-5zm2 1h2v1h-2zm-1 1h2v1h-2zm-1 1h2v1h-2zm-2-1h2v1h-2zm-1 1h2v1h-2zm-2 2h2v1H8zm1 2h2v1H9zm3 0h3v1h-3zm1-1h3v1h-3zm1-1h3v1h-3zm-4 1h2v1h-2zm-3 0h2v1H7zm1 2h2v1H8zm2 1h2v1h-2zm1-1h4v1h-4zm0-3h2v1h-2zm7 3h2v1h-2zm9 6h2v1h-2zm-7-4h9v3h-9zm-4-3h2v1h-2zm-1 2h2v1h-2zm10 0h3v1h-3zm-9 2h4v1h-4zm-1-1h3v1h-3zm2 2h3v1h-3zm3-5h6v1h-6zm1 1h6v1h-6zm-2 6h10v-1H19zm-1-9h6v1h-6zm1-5h6v1h-6zm-1 1h8v1h-8zm-9 3h9v1H9zm8-2h10v1H17zm0 4h8v1h-8zM14 6h2v1h-2zm1-1h5v1h-5zM2 14h3v1H2zm15-8h4v1h-4zm3 3h4v1h-4zm-2-1h5v1h-5zM1 15h6v1H1zm4-4h9v1H5zm3-3h9v1H8zm5-5h5v1h-5zm1 25h5v1h-5zm-1-1h7v1h-7zm-1-1h9v1h-9zm-1-1h11v1H11zm-1-1h9v1h-9zm-1-1h8v1H9zm-1-1h8v1H8zm4-18h7v1h-7zm3 25h3v1h-3zm-4-8h4v1h-4zm5 9h1v1h-1zm12-12h1v1h-1zm-1-1h3v1h-3zm-1-1h5v1h-5zm-1-1h5v1h-5zm-1-1h5v1h-5zm-8-1h12v1H16zm-4 7h2v1h-2zm-5 1h3v1H7zm-1-1h5v1H6zM16 7h6v1h-6z"/><path fill="#000" d="M2 16H1v1h1zM17 1h-1v1h1zm14 15h1v1h-1zM7 8h1v1H7zm3 16H9v1h1zM25 9h-1v1h1zM11 4h1v1h-1zM6 20H5v1h1zM21 5h-1v1h1zM3 12h1v1H3zm3 1h1v1H6zm7-7h1v1h-1zm-4 4h1v1H9zm1 11h1v1h-1zm2-11h1v1h-1zm3-3h1v1h-1zm1 2h1v1h-1zm-3 3h1v1h-1zm-4 4h1v1H9zm9-6h1v1h-1zm-6 6h1v1h-1zm-4-2h1v1H8zm6 14h-1v1h1zm15-15h-1v1h1zM19 28h1v1h-1zM13 2h1v1h-1zM4 18H3v1h1zM19 3h-1v1h1zm10 15h1v1h-1zm-1 1h1v1h-1zm-12 3h1v1h-1zm-1-1h1v1h-1zm-1-1h1v1h-1zm1-3h1v1h-1zm1-1h1v1h-1zm1-1h1v1h-1zm3 3h1v1h-1zm4-3h1v1h-1zm1 1h1v1h-1zm1 1h1v1h-1zm1 1h1v1h-1zm-9 2h2v1h-2zm0-3h2v1h-2zm-1 6h2v1h-2zm-2-5h3v1h-3zm-3 1h3v1h-3zm15 6h2v1h-2zm-10-6h8v1h-8zm2 5h8v1h-8zm10-5h3v8h-3zM5 10h1v1H5zm7 16h-1v1h1zm15-15h-1v1h1zm-6 15h1v1h-1zM9 6h1v1H9zM8 22H7v1h1zM23 7h-1v1h1zM1 14h1v1H1zm15 16h-1v1h1zm15-15h-1v1h1zM17 30h1v1h-1zM14 1h1v1h-1zM3 17H2v1h1zM18 2h-1v1h1zm12 15h1v1h-1zM6 9h1v1H6zm5 16h-1v1h1zm15-15h-1v1h1zm-4 15h1v1h-1zM10 5h1v1h-1zM7 21H6v1h1zM22 6h-1v1h1zM2 13h1v1H2zm3 1h1v1H5zm7-7h1v1h-1zm0 6h1v1h-1zm-4 4h1v1H8zm9-6h1v1h-1zm-6 6h1v1h-1zm-4-2h1v1H7zm0 3h1v1H7zm9-6h1v1h-1zm-6 6h1v1h-1zm5-5h1v1h-1zm-6 6h1v1H9zm-3-3h1v1H6zm9 13h-1v1h1zm15-15h-1v1h1zM18 29h1v1h-1zM12 3h1v1h-1zM5 19H4v1h1zM20 4h-1v1h1zM4 11h1v1H4zm3 1h1v1H7zm7-7h1v1h-1zm-4 4h1v1h-1zm1 11h1v1h-1zm2-11h1v1h-1zm3-3h1v1h-1zm1 2h1v1h-1zm-3 3h1v1h-1zm-4 4h1v1h-1zm9-6h1v1h-1zm-1 5h6v1h-6zm-5 1h1v1h-1zm-4-2h1v1H9zm1-1h1v1h-1zm3 15h-1v1h1zm15-15h-1v1h1zm-8 15h1v1h-1zM8 7h1v1H8zm1 16H8v1h1zM24 8h-1v1h1zM0 15h1v1H0zm16 16h1v1h-1z"/></svg>