<?xml version="1.0" encoding="UTF-8"?>
<svg version="1.1" xmlns="http://www.w3.org/2000/svg" width="1080" height="1080">
<path d="M0 0 C44.88 0 89.76 0 136 0 C136 72.6 136 145.2 136 220 C123.13 220 110.26 220 97 220 C97 200.53 97 181.06 97 161 C79.84 161 62.68 161 45 161 C45 180.8 45 200.6 45 221 C30.15 221 15.3 221 0 221 C0 148.07 0 75.14 0 0 Z " fill="#161616" transform="translate(470,311)"/>
<path d="M0 0 C11.22 0 22.44 0 34 0 C34.81976318 3.88265625 35.63952637 7.7653125 36.48413086 11.765625 C39.78008469 27.37577786 43.07678679 42.98577265 46.37371129 58.59572053 C47.41258978 63.51453757 48.45138291 68.43337264 49.49010968 73.35222173 C59.60623529 121.26787335 59.60623529 121.26787335 69.77734375 169.171875 C69.98416464 170.1432692 70.19098553 171.11466339 70.40407372 172.11549377 C72.25551632 180.81102892 74.1084821 189.50623211 75.96795368 198.20005417 C76.61145363 201.21027206 77.25345649 204.22080786 77.89509773 207.23142242 C78.31996606 209.22204452 78.74702979 211.21219765 79.17417908 213.20233154 C79.41882401 214.35082581 79.66346893 215.49932007 79.91552734 216.68261719 C80.12704437 217.67106628 80.3385614 218.65951538 80.55648804 219.67791748 C81 222 81 222 81 224 C49.78899181 224.8670365 18.59599164 225.09157321 -12.625 225.0625 C-13.55078228 225.06164398 -14.47656456 225.06078796 -15.43040085 225.05990601 C-26.9536202 225.04846421 -38.47680996 225.02831393 -50 225 C-48.29603788 213.04744381 -45.48857316 201.31219396 -42.85546875 189.5390625 C-42.33198316 187.18745369 -41.80877628 184.83578283 -41.28582764 182.48405457 C-39.88116868 176.1711065 -38.47254557 169.85904929 -37.06303024 163.54718399 C-35.74605217 157.6486745 -34.43225337 151.74945655 -33.11809838 145.8503176 C-30.73339273 135.14599344 -28.34630621 124.44220223 -25.9574517 113.73880327 C-23.02154022 100.58421808 -20.09146401 87.42834306 -17.16520691 74.27160645 C-15.44794158 66.55076795 -13.72866079 58.83037893 -12.00855732 51.11017227 C-10.86046016 45.95716924 -9.71307067 40.8040113 -8.56747437 35.65045166 C-7.50281809 30.86153873 -6.43563054 26.07319712 -5.36640167 21.28530312 C-4.97780528 19.54320886 -4.59011548 17.80091209 -4.20339203 16.05840111 C-3.68090884 13.7048072 -3.15521984 11.3519527 -2.62866211 8.99926758 C-2.47667956 8.3110322 -2.32469702 7.62279682 -2.16810894 6.91370583 C-1.11416494 2.22832987 -1.11416494 2.22832987 0 0 Z " fill="#161616" transform="translate(524,560)"/>
<path d="M0 0 C81.01465489 -1.86669712 162.91254839 21.60143077 229.51171875 68.06640625 C230.0840625 68.46005371 230.65640625 68.85370117 231.24609375 69.25927734 C240.3241936 75.5081383 248.9164233 82.27949761 257.38867188 89.32421875 C258.88315496 90.55060229 260.39392865 91.75726762 261.91601562 92.94921875 C269.69344617 99.1089898 276.67838445 105.92711186 283.66455078 112.95849609 C285.63355025 114.93822049 287.61302602 116.90701379 289.59375 118.875 C296.69442251 125.96827504 303.30881079 133.16652457 309.51171875 141.06640625 C310.37438208 142.09456496 311.24279136 143.11798085 312.12109375 144.1328125 C327.86362346 162.48952142 340.94563877 182.99539759 352.49121094 204.20166016 C353.46505582 205.98114035 354.46052843 207.74873345 355.45703125 209.515625 C385.7923485 264.35254465 399.72323069 328.10444735 399.76171875 390.44140625 C399.76273087 391.92373245 399.76273087 391.92373245 399.76376343 393.43600464 C399.66246055 487.45359918 365.49578684 578.34571135 303.51171875 649.06640625 C302.74601563 649.94425781 301.9803125 650.82210937 301.19140625 651.7265625 C295.19035153 658.43192107 288.87337849 664.83191852 282.53601074 671.21734619 C281.53683014 672.22456857 280.53913434 673.23326656 279.54309082 674.24359131 C272.88377085 680.98817174 265.93530101 687.16078903 258.51171875 693.06640625 C257.24079851 694.12674245 255.97339938 695.19132578 254.7109375 696.26171875 C194.40709431 746.83448314 116.58693294 776.04877676 38.51171875 782.06640625 C37.62790527 782.13553223 36.7440918 782.2046582 35.83349609 782.27587891 C30.395008 782.67884801 24.96308295 782.92868758 19.51171875 783.06640625 C18.70766602 783.08832031 17.90361328 783.11023438 17.07519531 783.1328125 C-63.95462247 785.01358197 -145.87728273 761.53963401 -212.48828125 715.06640625 C-213.34679687 714.47593506 -213.34679687 714.47593506 -214.22265625 713.87353516 C-223.3007561 707.6246742 -231.8929858 700.85331489 -240.36523438 693.80859375 C-241.85971746 692.58221021 -243.37049115 691.37554488 -244.89257812 690.18359375 C-252.67000867 684.0238227 -259.65494695 677.20570064 -266.64111328 670.17431641 C-268.61011275 668.19459201 -270.58958852 666.22579871 -272.5703125 664.2578125 C-279.67098501 657.16453746 -286.28537329 649.96628793 -292.48828125 642.06640625 C-293.35094458 641.03824754 -294.21935386 640.01483165 -295.09765625 639 C-310.84018596 620.64329108 -323.92220127 600.13741491 -335.46777344 578.93115234 C-336.44161832 577.15167215 -337.43709093 575.38407905 -338.43359375 573.6171875 C-368.768911 518.78026785 -382.69979319 455.02836515 -382.73828125 392.69140625 C-382.73929337 391.20908005 -382.73929337 391.20908005 -382.74032593 389.69680786 C-382.63902305 295.67921332 -348.47234934 204.78710115 -286.48828125 134.06640625 C-285.72257812 133.18855469 -284.956875 132.31070313 -284.16796875 131.40625 C-278.16691403 124.70089143 -271.84994099 118.30089398 -265.51257324 111.91546631 C-264.51339264 110.90824393 -263.51569684 109.89954594 -262.51965332 108.88922119 C-255.86033335 102.14464076 -248.91186351 95.97202347 -241.48828125 90.06640625 C-240.21736101 89.00607005 -238.94996188 87.94148672 -237.6875 86.87109375 C-171.63535334 31.4776151 -85.58079929 2.28394598 0 0 Z M-45.48828125 10.06640625 C-46.61379395 10.2380127 -47.73930664 10.40961914 -48.89892578 10.58642578 C-112.92729756 20.49484066 -174.42057806 45.98100482 -225.48828125 86.06640625 C-226.29652344 86.69417969 -227.10476563 87.32195312 -227.9375 87.96875 C-250.81344825 105.98217785 -272.54498568 126.07374107 -290.48828125 149.06640625 C-291.5880931 150.4482738 -292.68839554 151.82975096 -293.7890625 153.2109375 C-301.17966586 162.53729461 -308.12932445 172.00866473 -314.48828125 182.06640625 C-314.91141602 182.7301123 -315.33455078 183.39381836 -315.77050781 184.07763672 C-355.09604085 246.03499947 -376.80359656 317.41701525 -376.67578125 390.94140625 C-376.67484467 391.65150848 -376.67390808 392.36161072 -376.67294312 393.0932312 C-376.45988785 468.53473527 -354.02519166 545.13461853 -310.48828125 607.06640625 C-309.8840332 607.93652344 -309.8840332 607.93652344 -309.26757812 608.82421875 C-288.26936542 639.04034733 -263.40502661 667.22012659 -234.48828125 690.06640625 C-233.4328862 690.94550962 -232.37962209 691.82717548 -231.328125 692.7109375 C-170.09877928 743.67750859 -85.6879389 775.91416255 -5.92578125 776.26953125 C-4.86403687 776.27654556 -3.80229248 776.28355988 -2.70837402 776.29078674 C0.69836729 776.30818616 4.10493464 776.314639 7.51171875 776.31640625 C8.67711182 776.31708099 9.84250488 776.31775574 11.04321289 776.31845093 C28.39697393 776.30248212 45.34556899 775.82213115 62.51171875 773.06640625 C63.63723145 772.8947998 64.76274414 772.72319336 65.92236328 772.54638672 C129.95073506 762.63797184 191.44401556 737.15180768 242.51171875 697.06640625 C243.31996094 696.43863281 244.12820313 695.81085937 244.9609375 695.1640625 C267.83688575 677.15063465 289.56842318 657.05907143 307.51171875 634.06640625 C308.6115306 632.6845387 309.71183304 631.30306154 310.8125 629.921875 C318.20310336 620.59551789 325.15276195 611.12414777 331.51171875 601.06640625 C331.93485352 600.4027002 332.35798828 599.73899414 332.79394531 599.05517578 C372.11947835 537.09781303 393.82703406 465.71579725 393.69921875 392.19140625 C393.69828217 391.48130402 393.69734558 390.77120178 393.69638062 390.0395813 C393.48332535 314.59807723 371.04862916 237.99819397 327.51171875 176.06640625 C326.9074707 175.19628906 326.9074707 175.19628906 326.29101562 174.30859375 C305.29280292 144.09246517 280.42846411 115.91268591 251.51171875 93.06640625 C250.4563237 92.18730288 249.40305959 91.30563702 248.3515625 90.421875 C187.12221678 39.45530391 102.7113764 7.21864995 22.94921875 6.86328125 C21.88747437 6.85626694 20.82572998 6.84925262 19.73181152 6.84202576 C16.32507021 6.82462634 12.91850286 6.8181735 9.51171875 6.81640625 C8.34632568 6.81573151 7.18093262 6.81505676 5.98022461 6.81436157 C-11.37353643 6.83033038 -28.32213149 7.31068135 -45.48828125 10.06640625 Z " fill="#161616" transform="translate(531.48828125,151.93359375)"/>
<path d="M0 0 C5.63585209 5.63585209 5.63585209 5.63585209 7.91015625 8.42578125 C8.41877197 9.04912354 8.9273877 9.67246582 9.45141602 10.31469727 C10.24890259 11.30360962 10.24890259 11.30360962 11.0625 12.3125 C11.62831787 13.01109131 12.19413574 13.70968262 12.77709961 14.42944336 C17.16258518 19.87940865 21.37808405 25.44289385 25.54467773 31.06103516 C29.40292768 36.24899317 33.39013229 41.31886445 37.46508789 46.33813477 C38.3789429 47.46666586 39.28187383 48.60411973 40.17437172 49.74961567 C41.54667235 51.44119981 42.98705425 53.07790386 44.45810509 54.68435192 C51.78257228 62.96271275 53.43061976 69.4477591 53.13525391 80.61254883 C53.1324257 82.13168652 53.13403107 83.65083783 53.13967896 85.16996765 C53.14252251 89.25294246 53.08416749 93.33291775 53.01393938 97.41520143 C52.95098474 101.69645693 52.94551783 105.97779822 52.9336853 110.25944519 C52.90273162 118.34867515 52.82084855 126.43653692 52.72019041 134.52516717 C52.60801335 143.74154405 52.5533337 152.95798987 52.50323606 162.17488062 C52.39899949 181.11751796 52.21577869 200.05828222 52 219 C34.84 219 17.68 219 0 219 C0 146.73 0 74.46 0 0 Z " fill="#161616" transform="translate(617,311)"/>
<path d="M0 0 C0.33 0 0.66 0 1 0 C1 72.27 1 144.54 1 219 C-16.16 219 -33.32 219 -51 219 C-51.27156053 199.1799113 -51.49231974 179.3613435 -51.62174606 159.53986263 C-51.6834556 150.33505791 -51.76748451 141.1314965 -51.90527344 131.92749023 C-52.02540452 123.89911868 -52.10242018 115.87164797 -52.12906194 107.84240252 C-52.14462147 103.59584043 -52.18081017 99.35185387 -52.26876068 95.10612297 C-52.87931011 64.45562132 -52.87931011 64.45562132 -45.23144531 55.69750977 C-43.70904839 54.16680059 -42.15558736 52.74230142 -40.503088 51.35380554 C-37.98511998 49.085915 -36.12406839 46.41570853 -34.125 43.6875 C-33.67624512 43.10210449 -33.22749023 42.51670898 -32.76513672 41.91357422 C-32.40693848 41.4445166 -32.04874023 40.97545898 -31.6796875 40.4921875 C-26.78376651 34.09895229 -21.81909671 27.75858851 -16.87158203 21.40527344 C-14.92160745 18.8992534 -12.97418369 16.39126836 -11.02734375 13.8828125 C-10.38442383 13.05483154 -9.74150391 12.22685059 -9.07910156 11.3737793 C-7.83704835 9.77408273 -6.59549569 8.17399737 -5.35449219 6.57348633 C-4.79793945 5.85700928 -4.24138672 5.14053223 -3.66796875 4.40234375 C-3.17578857 3.76804443 -2.6836084 3.13374512 -2.17651367 2.48022461 C-1 1 -1 1 0 0 Z " fill="#161616" transform="translate(456,311)"/>
<path d="M0 0 C59.4 0 118.8 0 180 0 C178.68590448 7.22752534 177.30023535 14.34339433 175.6171875 21.48046875 C175.39805695 22.41933426 175.17892639 23.35819977 174.95315552 24.32551575 C174.26295461 27.28010618 173.56904805 30.23381119 172.875 33.1875 C172.4020967 35.2089266 171.92943832 37.2304105 171.45703125 39.25195312 C170.30751269 44.16863468 169.15467342 49.08452662 168 54 C157.66315881 54.39913934 147.32823269 54.69850284 136.98517227 54.88080692 C132.17853422 54.96844646 127.37727231 55.08660054 122.57373047 55.2824707 C97.42601714 56.28073658 80.11014935 54.86980413 59.80073547 39.11630249 C55.46807389 35.84244011 50.84286825 33.09694406 46.1875 30.3125 C44.51258178 29.27624646 42.83917756 28.23753779 41.16796875 27.1953125 C35.46475573 23.66070957 29.7333468 20.17294004 24 16.6875 C23.03400879 16.09912354 22.06801758 15.51074707 21.07275391 14.90454102 C16.94423269 12.39098547 12.81297095 9.8834012 8.66015625 7.41015625 C8.03947266 7.03737549 7.41878906 6.66459473 6.77929688 6.28051758 C5.20089562 5.3330728 3.6182238 4.39275219 2.03515625 3.453125 C1.36355469 2.97359375 0.69195312 2.4940625 0 2 C0 1.34 0 0.68 0 0 Z " fill="#161616" transform="translate(314,557)"/>
<path d="M0 0 C61.05 0 122.1 0 185 0 C181.77316827 3.22683173 179.941759 4.79162523 176.09765625 6.8125 C174.65555786 7.57989502 174.65555786 7.57989502 173.18432617 8.36279297 C172.15412354 8.90307129 171.1239209 9.44334961 170.0625 10 C167.8713365 11.16728449 165.68124985 12.33659237 163.4921875 13.5078125 C162.39487305 14.0946582 161.29755859 14.68150391 160.16699219 15.28613281 C155.63024882 17.7412622 151.15486937 20.29634217 146.6875 22.875 C137.52572012 28.15652784 128.29224609 33.30210783 119.02612305 38.39794922 C117.97078369 38.9807666 116.91544434 39.56358398 115.828125 40.1640625 C114.79507736 40.72617935 113.76202972 41.2882962 112.69767761 41.8674469 C110.12838198 43.30505562 107.70300453 44.86170492 105.28433228 46.53944397 C94.31587132 53.9444131 85.97323498 55.334026 72.9453125 54.64453125 C71.18330442 54.58841897 69.42115646 54.5365571 67.65890503 54.48869324 C64.00483256 54.379054 60.35432617 54.23609023 56.70263672 54.06469727 C52.02186979 53.84529274 47.34148959 53.68545888 42.65770149 53.54681873 C38.16949646 53.41164127 33.68245994 53.24819107 29.1953125 53.08203125 C28.34323338 53.05272837 27.49115425 53.02342548 26.61325455 52.99323463 C24.21270125 52.90540445 21.81395308 52.79753629 19.41455078 52.68286133 C18.70398529 52.65923523 17.9934198 52.63560913 17.26132202 52.61126709 C14.48578257 52.46071302 12.44912583 52.30104608 10.10951233 50.7328186 C8.78850372 48.66968849 8.30531823 46.99730005 7.83325195 44.59204102 C7.65329178 43.70424454 7.4733316 42.81644806 7.28791809 41.90174866 C7.10653793 40.94546066 6.92515778 39.98917267 6.73828125 39.00390625 C6.44500191 37.52627052 6.44500191 37.52627052 6.14579773 36.01878357 C5.73462249 33.93602549 5.32898245 31.85216815 4.9284668 29.76733398 C4.3151253 26.57615924 3.68548449 23.38854908 3.05273438 20.20117188 C2.65529172 18.17727128 2.25877621 16.15318835 1.86328125 14.12890625 C1.6758284 13.17464249 1.48837555 12.22037872 1.29524231 11.23719788 C1.12473862 10.34624924 0.95423492 9.4553006 0.77856445 8.53735352 C0.62772903 7.75586441 0.47689362 6.97437531 0.32148743 6.16920471 C0 4 0 4 0 0 Z " fill="#161616" transform="translate(585,560)"/>
<path d="M0 0 C38.28 0 76.56 0 116 0 C116 17.82 116 35.64 116 54 C99.57015941 54 83.17156486 53.92120331 66.75 53.5625 C65.17353195 53.52940231 65.17353195 53.52940231 63.56521606 53.49563599 C46.70436386 53.14149627 29.85115507 52.67893629 13 52 C9.9365268 41.26311558 7.04461776 30.48244082 4.23706055 19.67605591 C3.87079294 18.26742664 3.50328035 16.8591205 3.13452148 15.45114136 C2.61067033 13.44884818 2.09175729 11.44533909 1.57421875 9.44140625 C1.27088623 8.27295166 0.96755371 7.10449707 0.6550293 5.90063477 C0 3 0 3 0 0 Z " fill="#161616" transform="translate(601,638)"/>
<path d="M0 0 C38.28 0 76.56 0 116 0 C111.40291206 19.53762373 111.40291206 19.53762373 109.640625 26.31640625 C109.44652039 27.06921371 109.25241577 27.82202118 109.0524292 28.59764099 C108.45330726 30.91970073 107.8517237 33.24111329 107.25 35.5625 C106.83446877 37.17118092 106.41910353 38.77990473 106.00390625 40.38867188 C105.00450495 44.25960853 104.00290149 48.12996879 103 52 C85.08749347 52.72169835 67.172712 53.18621562 49.25 53.5625 C48.23616241 53.58464569 47.22232483 53.60679138 46.17776489 53.62960815 C30.77887755 53.9630318 15.40726473 54 0 54 C0 36.18 0 18.36 0 0 Z " fill="#161616" transform="translate(362,638)"/>
<path d="M0 0 C38.2066641 3.58911087 92.52125125 23.70203249 120 51 C116.46961636 53.93661416 112.52448619 55.80061387 108.38671875 57.71484375 C107.64097092 58.06224106 106.89522308 58.40963837 106.12687683 58.76756287 C98.53581168 62.26946761 90.84785733 65.51824974 83.09350586 68.63989258 C80.76928005 69.57998134 78.45431849 70.54095614 76.13867188 71.50195312 C74.6411463 72.10806042 73.14311794 72.71292731 71.64453125 73.31640625 C70.96324661 73.60270401 70.28196198 73.88900177 69.58003235 74.18397522 C59.3622498 78.21383428 48.05623821 71.87285363 38.46484375 67.86645508 C29.72164381 64.03949913 23.77387247 60.47117113 20.05151367 51.36791992 C19.40639283 49.62858204 18.78376814 47.88079849 18.17919922 46.12695312 C16.73913661 42.30825294 15.00891578 38.68231824 13.22265625 35.015625 C12.88148773 34.31222488 12.54031921 33.60882477 12.18881226 32.8841095 C11.49237621 31.44857037 10.79556665 30.0132124 10.09838867 28.57803345 C1.36325677 10.52798375 1.36325677 10.52798375 -1 1 C-0.67 0.67 -0.34 0.34 0 0 Z " fill="#161616" transform="translate(607,202)"/>
<path d="M0 0 C6.7797405 3.99097513 8.9753415 8.96903874 11.32128906 16.20947266 C13.19494362 21.44672085 15.76063777 26.3969025 18.16668701 31.40621948 C21.65625007 38.71720779 24.98246713 46.10837362 28.18945312 53.54736328 C28.80095215 54.96311646 28.80095215 54.96311646 29.42480469 56.4074707 C30.29882812 58.94189453 30.29882812 58.94189453 30.29882812 62.94189453 C23.78813905 63.3698699 18.2131502 61.80853148 11.98632812 60.00439453 C10.34784912 59.5351355 10.34784912 59.5351355 8.67626953 59.05639648 C-23.56968563 49.65420328 -65.09372216 37.39210815 -89.70117188 12.94189453 C-86.92095223 9.51251671 -83.06429376 8.01767521 -79.14648438 6.22705078 C-78.02078537 5.70595482 -78.02078537 5.70595482 -76.87234497 5.17433167 C-69.27803442 1.69107469 -61.59672055 -1.57083909 -53.84960938 -4.69799805 C-51.53584355 -5.63697153 -49.23221776 -6.59856453 -46.92773438 -7.56005859 C-45.43351166 -8.16628056 -43.93873986 -8.7711513 -42.44335938 -9.37451172 C-41.76723602 -9.66080948 -41.09111267 -9.94710724 -40.39450073 -10.24208069 C-28.11047492 -15.08742619 -11.18415943 -5.73531661 0 0 Z " fill="#161616" transform="translate(441.701171875,817.05810546875)"/>
<path d="M0 0 C0.74979126 0.31255234 1.49958252 0.62510468 2.27209473 0.9471283 C3.85396109 1.60901935 5.43381648 2.27573512 7.01171875 2.94702148 C9.36765241 3.94843741 11.72989629 4.93346481 14.09375 5.91601562 C24.24962073 10.1705989 34.12290163 14.85225174 43.90625 19.90234375 C19.81385678 44.79458503 -37.24937204 69.04510657 -72.18774414 71.02075195 C-73.82354649 71.02622965 -75.45941751 70.97188981 -77.09375 70.90234375 C-74.9218526 62.31693177 -71.32976827 54.4866211 -67.53125 46.52734375 C-67.21939758 45.8722583 -66.90754517 45.21717285 -66.58624268 44.54223633 C-65.31727414 41.87760518 -64.04792867 39.21318625 -62.7713623 36.55218506 C-60.8964967 32.63394456 -59.10457821 28.69055349 -57.37109375 24.70703125 C-51.0649459 10.52040795 -51.0649459 10.52040795 -44.84375 7.21484375 C-42.60551818 6.41047919 -40.35288592 5.64597599 -38.09375 4.90234375 C-36.29549316 4.13107304 -34.50437952 3.3430396 -32.71875 2.54296875 C-30.76112801 1.68197457 -28.80278774 0.82261176 -26.84375 -0.03515625 C-25.44141113 -0.65813599 -25.44141113 -0.65813599 -24.01074219 -1.29370117 C-23.10485352 -1.67115479 -22.19896484 -2.0486084 -21.265625 -2.4375 C-20.4622168 -2.78159912 -19.65880859 -3.12569824 -18.83105469 -3.48022461 C-12.11177169 -4.99583883 -6.09937544 -2.61029227 0 0 Z " fill="#161616" transform="translate(683.09375,809.09765625)"/>
<path d="M0 0 C0.99 0 1.98 0 3 0 C7.18302501 12.06705757 10.86335283 24.20495446 14.15234375 36.54541016 C14.88624072 39.29206916 15.6341504 42.03467694 16.3828125 44.77734375 C16.85760847 46.54404593 17.3315979 48.31096512 17.8046875 50.078125 C18.02647675 50.88751526 18.24826599 51.69690552 18.47677612 52.53082275 C20.17351967 58.97019632 20.96938896 63.89383118 17.76953125 70.01171875 C17.29580078 70.93533203 16.82207031 71.85894531 16.33398438 72.81054688 C15.83189453 73.75994141 15.32980469 74.70933594 14.8125 75.6875 C13.83779171 77.56534254 12.86513197 79.44424984 11.89453125 81.32421875 C11.39010498 82.25854736 10.88567871 83.19287598 10.3659668 84.15551758 C8.91996906 86.94279227 8.91996906 86.94279227 8.22192383 89.8972168 C7.04369298 93.89195759 5.87716549 96.87544251 2.1713562 99.0954895 C-3.65118488 101.81006634 -9.79876273 103.59092264 -15.9375 105.4375 C-17.77271302 106.02416513 -19.60671542 106.61463154 -21.43945312 107.20898438 C-26.60756922 108.87054418 -31.79901479 110.44498402 -37 112 C-37.72713196 112.22133606 -38.45426392 112.44267212 -39.20343018 112.67071533 C-50.92149154 116.23744434 -50.92149154 116.23744434 -56 116 C-56.30267011 110.17942096 -55.27731482 105.42260719 -53.5625 99.875 C-53.29808105 99.0097168 -53.03366211 98.14443359 -52.76123047 97.25292969 C-48.00524793 82.22521452 -41.26794578 67.89364657 -34.00048828 53.93164062 C-32.99380137 51.98803232 -32.00969762 50.0341265 -31.02734375 48.078125 C-26.5724004 39.31959417 -21.61546794 30.91286236 -16.4375 22.5625 C-15.82447021 21.56798828 -15.21144043 20.57347656 -14.57983398 19.54882812 C-10.28702255 12.71325035 -5.73594057 5.73594057 0 0 Z " fill="#161616" transform="translate(253,353)"/>
<path d="M0 0 C-0.49341895 6.67512056 -2.95481498 12.12848262 -5.6875 18.1875 C-6.16791748 19.26088623 -6.64833496 20.33427246 -7.14331055 21.44018555 C-8.74051854 24.97038831 -10.36141105 28.48887072 -12 32 C-12.29314087 32.62813599 -12.58628174 33.25627197 -12.88830566 33.90344238 C-14.69783141 37.76664205 -16.53581358 41.61475357 -18.40615845 45.44888306 C-19.00620071 46.68268827 -19.60115293 47.91898309 -20.19076538 49.1578064 C-21.023438 50.90094253 -21.88046619 52.63237957 -22.73828125 54.36328125 C-23.22337158 55.35626221 -23.70846191 56.34924316 -24.20825195 57.37231445 C-28.77567703 64.07066519 -37.28682377 66.48474802 -44.51318359 69.48364258 C-46.50129871 70.31304179 -48.4788594 71.1647826 -50.45703125 72.01757812 C-51.73118739 72.55087528 -53.00590917 73.08282344 -54.28125 73.61328125 C-55.42658203 74.09579346 -56.57191406 74.57830566 -57.75195312 75.07543945 C-63.72621213 76.77601964 -68.30499671 74.65023174 -73.8828125 72.375 C-74.85556877 71.98053177 -74.85556877 71.98053177 -75.84797668 71.57809448 C-77.94324179 70.72568951 -80.03434387 69.86364169 -82.125 69 C-83.19115036 68.56231293 -83.19115036 68.56231293 -84.27883911 68.11578369 C-93.20012699 64.45319476 -102.10795384 60.75422133 -110.9375 56.875 C-111.75814941 56.52179688 -112.57879883 56.16859375 -113.42431641 55.8046875 C-115.32235709 54.9527946 -117.16870278 53.98723374 -119 53 C-119.495 51.515 -119.495 51.515 -120 50 C-92.16592021 27.15460788 -37.68374431 0 0 0 Z " fill="#161616" transform="translate(472,202)"/>
<path d="M0 0 C6.49828421 1.29881346 9.50294507 7.77651978 13 13 C21.25475532 25.65199998 28.92592321 38.6537772 36 52 C36.44585449 52.8357959 36.89170898 53.6715918 37.35107422 54.53271484 C42.88732636 64.99094124 47.82405198 75.54751115 52 86.625 C52.3616626 87.5835791 52.7233252 88.5421582 53.09594727 89.52978516 C56.22809908 98.11849468 59.27241476 106.77365275 59 116 C52.26570798 115.46281812 46.38726541 114.09030618 39.99609375 111.9453125 C39.07337173 111.64309784 38.15064972 111.34088318 37.19996643 111.0295105 C34.27637288 110.06952733 31.35702116 109.09728821 28.4375 108.125 C26.47486188 107.47970027 24.51197316 106.83516219 22.54882812 106.19140625 C12.7274299 102.95849491 12.7274299 102.95849491 9.3097229 101.78433228 C7.78914329 101.26797611 6.26009793 100.7758128 4.72323608 100.31015015 C1.36729737 99.22452231 -0.70034342 98.36964661 -2.94628906 95.59912109 C-3.38166992 94.66664551 -3.81705078 93.73416992 -4.265625 92.7734375 C-4.76320313 91.74089844 -5.26078125 90.70835937 -5.7734375 89.64453125 C-6.50433594 88.02611328 -6.50433594 88.02611328 -7.25 86.375 C-7.75273438 85.31925781 -8.25546875 84.26351562 -8.7734375 83.17578125 C-9.75850383 81.09476417 -10.72447468 79.00458699 -11.66992188 76.90527344 C-12.49409244 75.10504771 -13.35828013 73.32188532 -14.28320312 71.57128906 C-19.65009218 61.10907738 -14.92730652 50.09243603 -11.98168945 39.42626953 C-11.32227798 37.03545187 -10.67675528 34.64122269 -10.03320312 32.24609375 C-7.0785215 21.35870236 -3.67223424 10.66548707 0 0 Z " fill="#161616" transform="translate(820,353)"/>
<path d="M0 0 C-0.39054578 7.85378031 -1.81481964 14.76497126 -4.375 22.1875 C-4.9023877 23.7351001 -4.9023877 23.7351001 -5.44042969 25.31396484 C-13.92377827 49.49920711 -26.29626859 72.01446588 -39.75 93.75 C-40.35166992 94.72582031 -40.95333984 95.70164062 -41.57324219 96.70703125 C-52.54573142 114.15262923 -52.54573142 114.15262923 -57.23730469 115.77246094 C-58.10983887 115.88509277 -58.10983887 115.88509277 -59 116 C-63.87329078 102.54197182 -67.77338294 88.8892642 -71.4375 75.0625 C-71.66427429 74.21645203 -71.89104858 73.37040405 -72.12469482 72.49871826 C-72.77785354 70.0546844 -73.42005193 67.60804488 -74.05859375 65.16015625 C-74.25514053 64.42645309 -74.45168732 63.69274994 -74.65419006 62.93681335 C-77.94956992 50.09202558 -73.04741467 37.43467166 -66.71875 26.19140625 C-56.89055094 10.45905661 -33.88872626 7.15072084 -17.06054688 3.17211914 C-16.20001709 2.97449982 -15.3394873 2.77688049 -14.45288086 2.57327271 C-12.14993082 2.03504094 -9.86669342 1.4447454 -7.58007812 0.84155273 C-4 0 -4 0 0 0 Z " fill="#161616" transform="translate(879,612)"/>
<path d="M0 0 C6.80255486 0.58707119 12.88262698 2.34299922 19.359375 4.45703125 C20.42617493 4.80126633 21.49297485 5.1455014 22.59210205 5.50016785 C24.83556786 6.22691498 27.07779989 6.95748069 29.31884766 7.69165039 C32.74847678 8.81200241 36.18437005 9.91139835 39.62109375 11.00976562 C41.80509941 11.72008892 43.98870765 12.43163558 46.171875 13.14453125 C47.19794861 13.47072952 48.22402222 13.7969278 49.28118896 14.13301086 C50.23608215 14.44981308 51.19097534 14.7666153 52.17480469 15.09301758 C53.01227234 15.36535721 53.84973999 15.63769684 54.71258545 15.91828918 C59.83843808 18.34228803 62.20649367 22.73734538 64.70703125 27.6015625 C65.03668381 28.23806732 65.36633636 28.87457214 65.70597839 29.53036499 C66.39689843 30.87457211 67.08328861 32.22111616 67.76538086 33.56982422 C68.80481166 35.60991014 69.87711338 37.63032581 70.95117188 39.65234375 C74.78061752 47.05125841 77.26926636 52.68249134 75 61 C74.68078573 62.31411343 74.36385567 63.62878278 74.04858398 64.94384766 C73.08991545 68.8388018 72.04943168 72.70740428 70.98168945 76.57373047 C70.32227798 78.96454813 69.67675528 81.35877731 69.03320312 83.75390625 C66.0785215 94.64129764 62.67223424 105.33451293 59 116 C51.72279676 114.46607971 48.04469623 106.63461662 44.1640625 100.7421875 C37.74794138 90.81461108 31.81100963 80.65018131 26.21337891 70.24169922 C25.00870552 68.01608332 23.77788544 65.80660552 22.54296875 63.59765625 C-0.57207994 21.68455379 -0.57207994 21.68455379 0 0 Z " fill="#161616" transform="translate(197,612)"/>
<path d="M0 0 C0 25.74 0 51.48 0 78 C-6.74903883 76.8751602 -6.74903883 76.8751602 -9.87353516 75.39624023 C-10.57897964 75.06701569 -11.28442413 74.73779114 -12.01124573 74.39859009 C-12.76292526 74.0388913 -13.5146048 73.6791925 -14.2890625 73.30859375 C-15.09403671 72.93117035 -15.89901093 72.55374695 -16.7283783 72.16488647 C-18.46181162 71.35157064 -20.19375711 70.53507765 -21.92434692 69.71572876 C-26.50594702 67.54724105 -31.09881641 65.4029033 -35.69140625 63.2578125 C-36.62720016 62.82018082 -37.56299408 62.38254913 -38.52714539 61.93165588 C-48.15335589 57.44067915 -57.84774634 53.10789706 -67.5625 48.8125 C-68.74588959 48.28884354 -68.74588959 48.28884354 -69.95318604 47.75460815 C-74.30009692 45.83178459 -78.64899694 43.91354481 -83 42 C-82 39 -82 39 -80.01704407 37.7661438 C-78.7098365 37.16091385 -78.7098365 37.16091385 -77.3762207 36.54345703 C-76.38970016 36.07938446 -75.40317963 35.61531189 -74.38676453 35.13717651 C-73.30651505 34.64073639 -72.22626556 34.14429626 -71.11328125 33.6328125 C-68.81408715 32.5535345 -66.51543948 31.47309183 -64.21728516 30.39160156 C-63.02395569 29.83299438 -61.83062622 29.27438721 -60.60113525 28.69885254 C-54.88557177 26.00250851 -49.2142406 23.2176973 -43.54296875 20.4296875 C-42.44179718 19.88959045 -41.34062561 19.34949341 -40.20608521 18.79302979 C-36.86604324 17.15473073 -33.52676559 15.51488081 -30.1875 13.875 C-27.87830129 12.74209356 -25.56905665 11.60928075 -23.25976562 10.4765625 C-19.08591331 8.42876899 -14.91213339 6.38082906 -10.73901367 4.33154297 C-9.50643074 3.72631302 -9.50643074 3.72631302 -8.24894714 3.1088562 C-6.7654887 2.37742856 -5.2916135 1.62618923 -3.82881165 0.85427856 C-2 0 -2 0 0 0 Z " fill="#161616" transform="translate(252,505)"/>
<path d="M0 0 C4.66036918 1.55345639 8.98804318 3.28051633 13.4140625 5.3515625 C14.12988998 5.68299759 14.84571747 6.01443268 15.58323669 6.35591125 C17.12711595 7.07075162 18.67040733 7.78686275 20.21316528 8.50411987 C35.9786286 15.83098784 51.82083851 22.9722583 67.72314453 29.99658203 C68.8172036 30.48024483 68.8172036 30.48024483 69.93336487 30.97367859 C71.28946675 31.57286487 72.6459935 32.17109092 74.0030365 32.7681427 C77.04038927 34.10904667 80.0483097 35.47879028 83 37 C83 37.66 83 38.32 83 39 C69.00387739 46.04841822 55.00317087 53.07592465 40.8425293 59.78955078 C35.28801626 62.42326916 29.75214954 65.09130577 24.23046875 67.79296875 C22.22840334 68.76982273 20.22614289 69.74627595 18.22384644 70.72265625 C16.91581328 71.36204115 15.60877065 72.00345673 14.30276489 72.64697266 C12.48045969 73.54463397 10.65436835 74.43459676 8.828125 75.32421875 C7.2488623 76.0989856 7.2488623 76.0989856 5.63769531 76.8894043 C3 78 3 78 0 78 C0 52.26 0 26.52 0 0 Z " fill="#161616" transform="translate(828,505)"/>
<path d="M0 0 C3.4196967 1.61531615 5.65199177 3.41251026 8.3125 6.125 C9.03050781 6.84945312 9.74851562 7.57390625 10.48828125 8.3203125 C12.38427776 10.34310193 14.18498541 12.38408534 15.98046875 14.4921875 C21.32599001 20.64022071 27.20891221 26.27685235 33 32 C50.58733624 49.38100437 50.58733624 49.38100437 55 56 C40.55211157 61.76752261 25.93009277 66.98218401 11.25 72.125 C7.88426009 73.30729546 4.51881381 74.49042322 1.15344238 75.67376709 C-0.99635384 76.42919981 -3.14649243 77.18365906 -5.29699707 77.93707275 C-9.73509359 79.49292266 -14.17036657 81.05353445 -18.58789062 82.66699219 C-19.24517151 82.90634491 -19.90245239 83.14569763 -20.57965088 83.39230347 C-22.232074 83.9966957 -23.88227353 84.6071585 -25.53222656 85.21826172 C-28 86 -28 86 -31 86 C-28.64215489 77.6858442 -25.77904875 69.57295118 -22.8515625 61.4453125 C-22.35202241 60.05350696 -21.85262541 58.66165006 -21.35336304 57.26974487 C-20.31119828 54.36621658 -19.26711836 51.46338618 -18.22167969 48.56103516 C-16.89444688 44.87579976 -15.57232735 41.18875433 -14.25170326 37.50114632 C-13.22260341 34.6295628 -12.1905876 31.75903359 -11.15775681 28.88879013 C-10.66972829 27.53140974 -10.18259928 26.17370554 -9.69646072 24.81564713 C-6.69667224 16.44118791 -3.5104648 8.17558946 0 0 Z " fill="#161616" transform="translate(311,718)"/>
<path d="M0 0 C3.3602374 0.5919369 6.3378679 1.4240828 9.48193359 2.74316406 C10.34350067 3.10196655 11.20506775 3.46076904 12.09274292 3.83044434 C13.01862213 4.22155396 13.94450134 4.61266357 14.8984375 5.015625 C15.87418732 5.42349243 16.84993713 5.83135986 17.85525513 6.25158691 C21.03035305 7.58002403 24.20267973 8.91494512 27.375 10.25 C29.54865547 11.16089388 31.72248429 12.07137421 33.89648438 12.98144531 C39.27406583 15.23372351 44.64949548 17.4910854 50.02429199 19.75 C54.37160496 21.57616749 58.72085319 23.39770182 63.0703125 25.21875 C70.04882479 28.14120143 77.02536661 31.06830077 84 34 C84 37 84 37 81.76171875 39.3828125 C80.74521025 40.30601992 79.71980825 41.21949398 78.6875 42.125 C78.14206543 42.61436035 77.59663086 43.1037207 77.03466797 43.60791016 C72.77444333 47.39957174 68.35824572 50.9814105 63.9140625 54.5546875 C60.49551919 57.42333108 57.2483014 60.44171434 54 63.5 C49.01197056 68.19529357 43.90384452 72.63620024 38.5546875 76.921875 C34.58627535 80.15000231 30.78998792 83.56561588 27 87 C24.33827528 84.33827528 23.89460251 81.92890884 22.80102539 78.32226562 C22.59097366 77.63577942 22.38092194 76.94929321 22.164505 76.24200439 C21.46950444 73.96521274 20.78357084 71.68579381 20.09765625 69.40625 C19.61500452 67.81864016 19.13179631 66.2311994 18.64805603 64.6439209 C17.37279785 60.45400351 16.10521739 56.26180079 14.83917236 52.0690918 C13.55954442 47.83631384 12.27260302 43.60576176 10.98632812 39.375 C8.68664778 31.80657004 6.39001792 24.23723594 4.10842896 16.66333008 C3.42055925 14.38993783 2.72607157 12.11852319 2.02120972 9.8503418 C1.74536041 8.95806885 1.46951111 8.0657959 1.18530273 7.14648438 C0.95229965 6.40346069 0.71929657 5.66043701 0.47923279 4.89489746 C0 3 0 3 0 0 Z " fill="#161616" transform="translate(282,279)"/>
<path d="M0 0 C6.22680309 16.42689545 12.26254506 32.91696276 18.16894531 49.46166992 C19.29666368 52.61832987 20.42800078 55.77364395 21.5611496 58.92835522 C22.65849254 61.98626976 23.75082553 65.04597278 24.84375 68.10546875 C25.44987122 69.79122261 25.44987122 69.79122261 26.0682373 71.5110321 C26.62517273 73.07601189 26.62517273 73.07601189 27.19335938 74.67260742 C27.51929077 75.58394943 27.84522217 76.49529144 28.18103027 77.43424988 C28.98195205 79.94345758 29.53720152 82.40909111 30 85 C23.13048539 83.62776412 16.73860973 81.62979489 10.16796875 79.21875 C9.14519333 78.84857758 8.12241791 78.47840515 7.06864929 78.09701538 C3.773074 76.90306336 0.48030489 75.70156877 -2.8125 74.5 C-5.07058695 73.68056286 -7.32888847 72.86171676 -9.58740234 72.04345703 C-14.02956494 70.43371453 -18.47089472 68.82170779 -22.91162109 67.20800781 C-30.63944688 64.40228844 -38.38002359 61.63295445 -46.125 58.875 C-47.83586792 58.26495117 -47.83586792 58.26495117 -49.58129883 57.64257812 C-52.0539628 56.76105235 -54.52683466 55.88011792 -57 55 C-52.83519337 50.03436079 -48.50293369 45.35518777 -43.9140625 40.78125 C-43.25344818 40.11967896 -42.59283386 39.45810791 -41.91220093 38.77648926 C-40.52342439 37.38703655 -39.13340162 35.99882844 -37.7421875 34.61181641 C-35.63427071 32.50924719 -33.531735 30.40140396 -31.4296875 28.29296875 C-30.0706329 26.9345752 -28.711268 25.57649202 -27.3515625 24.21875 C-26.73358795 23.59875122 -26.1156134 22.97875244 -25.47891235 22.33996582 C-21.70528966 18.58614603 -17.81458078 15.0237964 -13.77459717 11.55784607 C-10.34991931 8.55146184 -7.26056322 5.22265932 -4.1015625 1.94140625 C-2 0 -2 0 0 0 Z " fill="#161616" transform="translate(771,718)"/>
<path d="M0 0 C-0.66119635 5.33829054 -2.31704832 10.0408794 -4.17578125 15.05078125 C-4.49737213 15.93059158 -4.81896301 16.81040192 -5.15029907 17.71687317 C-6.19948664 20.58389764 -7.25593368 23.44818752 -8.3125 26.3125 C-9.03705443 28.28806 -9.76109038 30.26381023 -10.48461914 32.23974609 C-11.94817524 36.23534292 -13.41418229 40.23002769 -14.88183594 44.22412109 C-16.83233902 49.53677154 -18.7676689 54.85479904 -20.6953125 60.17578125 C-20.97527573 60.94825699 -21.25523895 61.72073273 -21.54368591 62.51661682 C-22.59922902 65.42962903 -23.65446096 68.34275309 -24.70864868 71.2562561 C-25.41792065 73.21551894 -26.12869775 75.17422925 -26.83984375 77.1328125 C-27.43333618 78.77080811 -27.43333618 78.77080811 -28.03881836 80.44189453 C-29 83 -29 83 -30 85 C-33.25207092 83.58261511 -35.31361067 81.87473588 -37.75 79.3125 C-40.27986863 76.66038982 -42.89522666 74.20637389 -45.67407227 71.8215332 C-49.82187085 68.20456857 -53.73085858 64.39789942 -57.60546875 60.4921875 C-58.29256424 59.80367706 -58.97965973 59.11516663 -59.68757629 58.40579224 C-61.85660616 56.23122673 -64.02211678 54.05319614 -66.1875 51.875 C-67.65015629 50.40731851 -69.11304504 48.93986866 -70.57617188 47.47265625 C-73.259496 44.78121351 -75.94148864 42.08845991 -78.62182617 39.39404297 C-81.41001279 36.59146338 -84.20310934 33.79389221 -87 31 C-79.05092953 27.60629242 -71.04810784 24.48881385 -62.90234375 21.6015625 C-61.78799454 21.2035141 -60.67364532 20.8054657 -59.52552795 20.39535522 C-55.99723754 19.13559616 -52.46745901 17.880075 -48.9375 16.625 C-45.443256 15.3800165 -41.9493453 14.13410592 -38.45571899 12.88739014 C-36.18549945 12.07732061 -33.91497517 11.2681046 -31.64413452 10.45977783 C-26.47982408 8.61789262 -21.32390259 6.7586553 -16.18798828 4.83886719 C-14.86439049 4.34451675 -14.86439049 4.34451675 -13.51405334 3.84017944 C-11.8902963 3.23098801 -10.2681341 2.61752113 -8.64793396 1.99893188 C-5.62561776 0.86357795 -3.25753543 0 0 0 Z " fill="#161616" transform="translate(801,279)"/>
<path d="M0 0 C25.74 0 51.48 0 78 0 C75.64143177 5.89642058 73.32468227 11.62672492 70.671875 17.3671875 C70.0378274 18.74486642 69.40379486 20.12255227 68.76977539 21.50024414 C68.44059113 22.21310577 68.11140686 22.92596741 67.77224731 23.66043091 C60.70076684 38.97989603 53.79533289 54.36969993 46.96582031 69.79833984 C46.63921921 70.53603104 46.3126181 71.27372223 45.97612 72.0337677 C45.36486191 73.41508787 44.75416299 74.79665567 44.14411926 76.17851257 C42.10826841 80.78346318 42.10826841 80.78346318 41 83 C40.34 83 39.68 83 39 83 C38.40034424 81.76310425 38.40034424 81.76310425 37.78857422 80.5012207 C36.18928499 77.2033341 34.58929604 73.90578837 32.98898315 70.60839844 C32.24662803 69.07841842 31.50454202 67.5483078 30.76272583 66.01806641 C25.8654522 55.91632904 20.93718229 45.83058677 15.97265625 35.76171875 C14.45906903 32.68631548 12.94593055 29.61069183 11.43292236 26.53500366 C10.43549711 24.51069978 9.43594156 22.48744415 8.43426514 20.46524048 C7.02252648 17.6148046 5.61799806 14.76091903 4.21484375 11.90625 C3.78752457 11.04839401 3.36020538 10.19053802 2.91993713 9.3066864 C2.53377731 8.51776505 2.14761749 7.72884369 1.74975586 6.91601562 C1.4102037 6.22882446 1.07065155 5.5416333 0.72080994 4.83361816 C0 3 0 3 0 0 Z " fill="#161616" transform="translate(500,825)"/>
<path d="M0 0 C0.66 0 1.32 0 2 0 C11.01981639 19.6130252 19.94513462 39.26384353 28.68164062 59.00488281 C28.99851837 59.72081604 29.31539612 60.43674927 29.64187622 61.17437744 C30.25307914 62.55555079 30.86399046 63.93685322 31.47457886 65.31829834 C33.66098654 70.25762237 35.89526123 75.17372797 38.16333008 80.07617188 C39 82 39 82 39 83 C13.26 83 -12.48 83 -39 83 C-38.16101182 78.80505909 -37.33822232 76.32960754 -35.4453125 72.6328125 C-34.6555603 71.07566528 -34.6555603 71.07566528 -33.84985352 69.48706055 C-32.99605103 67.82284058 -32.99605103 67.82284058 -32.125 66.125 C-30.92677298 63.75990972 -29.72987879 61.39420059 -28.53515625 59.02734375 C-28.23369186 58.43123795 -27.93222748 57.83513214 -27.62162781 57.22096252 C-24.85818616 51.74590048 -22.19364221 46.22708497 -19.5625 40.6875 C-18.68235398 38.83590788 -17.80214391 36.9843462 -16.921875 35.1328125 C-16.46361328 34.16891602 -16.00535156 33.20501953 -15.53320312 32.21191406 C-12.48125761 25.8183798 -9.39500101 19.44134364 -6.3125 13.0625 C-5.6810659 11.75545492 -5.04963673 10.44840746 -4.41821289 9.14135742 C-2.94591318 6.09402653 -1.473113 3.04693784 0 0 Z " fill="#161616" transform="translate(539,172)"/>
<path d="M0 0 C-4.1445663 4.62278549 -8.7737643 7.4731533 -14.125 10.5625 C-15.93598614 11.62835797 -17.74585695 12.69611294 -19.5546875 13.765625 C-20.46831055 14.30509766 -21.38193359 14.84457031 -22.32324219 15.40039062 C-26.34284691 17.80247473 -30.29938261 20.29904903 -34.25 22.8125 C-35.00571289 23.29195068 -35.76142578 23.77140137 -36.54003906 24.26538086 C-38.14115914 25.28124679 -39.74206327 26.29745313 -41.34277344 27.31396484 C-46.51356249 30.59487895 -51.69157309 33.86409224 -56.875 37.125 C-57.90399414 37.77702393 -58.93298828 38.42904785 -59.99316406 39.10083008 C-60.9622168 39.70950928 -61.93126953 40.31818848 -62.9296875 40.9453125 C-63.78804199 41.48687988 -64.64639648 42.02844727 -65.53076172 42.58642578 C-67.96321222 43.97893996 -70.37495687 45.02713119 -73 46 C-74.28710927 40.23539358 -75.5687062 34.46959982 -76.84521484 28.70263672 C-77.28022471 26.74103743 -77.71673784 24.77977088 -78.15478516 22.81884766 C-78.78423432 19.99988598 -79.40826412 17.17977113 -80.03125 14.359375 C-80.22811401 13.48319519 -80.42497803 12.60701538 -80.62780762 11.70428467 C-80.80799438 10.88373596 -80.98818115 10.06318726 -81.17382812 9.21777344 C-81.33371216 8.49829529 -81.49359619 7.77881714 -81.6583252 7.03753662 C-82 5 -82 5 -82 1 C-22.66784367 -0.20994726 -22.66784367 -0.20994726 0 0 Z " fill="#161616" transform="translate(702,718)"/>
<path d="M0 0 C18.73592014 -0.07376514 37.45553488 0.12683832 56.1875 0.5 C58.71418822 0.54841208 61.24088093 0.59659004 63.76757812 0.64453125 C69.84510624 0.76033973 75.92257373 0.87897004 82 1 C81.21306659 4.949384 80.42498662 8.8985384 79.63671875 12.84765625 C79.41657104 13.95258423 79.19642334 15.05751221 78.96960449 16.19592285 C77.62056361 22.9510741 76.24183878 29.69887405 74.8125 36.4375 C74.65914185 37.17754272 74.50578369 37.91758545 74.34777832 38.68005371 C73.23147044 43.76852956 73.23147044 43.76852956 71 46 C45.25495519 30.21718129 45.25495519 30.21718129 33.30810547 22.60302734 C28.58845062 19.60479004 23.83210401 16.67216392 19.05078125 13.7734375 C17.84110031 13.03783528 16.63146488 12.3021582 15.421875 11.56640625 C13.6248502 10.47355541 11.82646508 9.38337905 10.02294922 8.30126953 C8.35133993 7.29830396 6.68529671 6.28607909 5.01953125 5.2734375 C4.05120361 4.68997559 3.08287598 4.10651367 2.08520508 3.50537109 C1.3970874 3.00859863 0.70896973 2.51182617 0 2 C0 1.34 0 0.68 0 0 Z " fill="#161616" transform="translate(377,718)"/>
</svg>
