<svg xmlns="http://www.w3.org/2000/svg" fill="none" viewBox="0 0 30 25"><path fill="#000" d="M9 4h1v1H9zm13 9h1v1h-1zm-8-4h1v1h-1zm-4 0h1v1h-1zm16 2h1v1h-1zm0 2h1v1h-1zm1 6h1v1h-1zm1-10h1v1h-1zm-3 0h1v1h-1zm-1-1h1v1h-1zm-1 1h1v1h-1zm-4 1h1v1h-1zm-1-3h2v1h-2zm2-1h2v1h-2zm-6-1h2v1h-2zm-2 1h2v1h-2zm-2 1h2v1h-2zm6 5h2v1h-2zm-2 1h2v1h-2zm6-1h2v1h-2zm5 3h2v1h-2zm-8 3h11v1H17zm-9 6h11v1H8zm9-4h10v1H17zm7 1h2v1h-2zm-2 1h2v1h-2zM3 22h2v1H3zm-2-1h2v1H1zm18 2h3v1h-3zm4-11h3v1h-3zm-1-7h4v1h-4zm-3-2h5v1h-5zm-9 0h6v1h-6zM9 0h6v1H9zm9 0h4v1h-4zm3 10h7v1h-7zM5 23h3v1H5zm4-8h8v1H9zm0 4h8v1H9zm1-2h7v1h-7zm7-1h8v1h-8zm-3-9h2v2h-2zm2 0h2v3h-2zm2 2h1v3h-1zm11-1h1v1h-1zm-2-3h1v1h-1zm-1 1h1v1h-1zM9 8h1v1H9zM8 1h1v1H8zM7 2h1v1H7zM6 3h1v2H6zM5 5h1v2H5zM2 8h1v2H2zm-1 2h1v2H1zm27 6h1v2h-1zm-1-2h1v3h-1zM8 16h1v3H8zM28 6h1v2h-1zm-4-4h1v2h-1zm-4 6h1v2h-1zm6 0h1v2h-1zM3 7h1v1H3z"/><path fill="#fff" d="M10 8h1v1h-1zm3 2h1v1h-1zm8-1h2v1h-2zm-6 0h1v1h-1zm-6 8h1v1H9zm8 4h7v1h-7zm0 1h5v1h-5zm0 1h2v1h-2zM5 22h3v1H5zm-2-1h5v1H3zm-1-1h6v1H2zm-1-1h8v1H1zm0-4h8v1H1zm1-4h10v1H2zm-1 5h7v3H1zm0-4h13v2H1zm7 8h9v4H8zm9-10h1v1h-1zm3-3h1v1h-1zm5 1h1v1h-1zm-1 1h1v1h-1zm2-4h1v1h-1zm1 1h1v1h-1zm-5 6h1v1h-1zm-2-2h1v1h-1zm-1-1h1v1h-1zm8 0h1v1h-1zM16 5h1v1h-1zm1-1h1v1h-1zM7 3h1v2H7zm9 0h1v1h-1zm2-2h1v1h-1zm-3 1h1v1h-1zM9 1h1v1H9zM8 4h1v1H8zm4 3h2v1h-2zm2-1h2v1h-2zm8-4h2v1h-2zm-5 4h3v1h-3zm4 2h3v1h-3zM11 9h3v1h-3zm7-4h4v1h-4zm-2 8h6v1h-6zm-7 3h8v1H9zm-7-6h8v1H2zm1-1h7v1H3zm0-1h6v1H3zm1-1h6v1H4zm2-1h6v1H6zm4-2h6v1h-6zM6 5h8v1H6zm3 13h8v1H9zm-8-4h26v1H1zm21-8h4v1h-4zm-3 5h7v1h-7zm0-7h6v1h-6zm-1 4h2v1h-2zm-4 4h2v1h-2zm4 0h2v1h-2zm7 4h2v1h-2zm-8-1h8v1h-8zm0 2h11v1H17zm0 2h10v1H17zm6-6h3v1h-3zm4-5h2v1h-2zM17 2h2v2h-2zM8 2h2v2H8zm2-1h5v2h-5zm9 0h3v2h-3z"/><path fill="#000" d="M1 20h1v1H1zM16 6h1v1h-1zm1-1h1v1h-1zm-1-3h1v1h-1zm6-1h2v1h-2zm3 3h2v1h-2zm-11 6h3v1h-3zm-3-2h3v1h-3zm-1 2h3v1h-3zm2 1h6v1h-6zm9-4h7v1h-7zm-3-3h1v1h-1zm-1-3h1v1h-1zm-2 0h1v1h-1zm1 3h1v1h-1zM4 6h1v1H4zm-4 5h1v10H0z"/></svg>