<svg xmlns="http://www.w3.org/2000/svg" fill="none" viewBox="0 0 30 32"><path fill="#000" d="M4 0h1v1H4zm4 4h1v1H8zm4 3h3v1h-3zM0 27h3v1H0zM15 8h2v1h-2zm2 1h2v1h-2zM2 21h2v1H2zm4 10h2v1H6zm9 0h4v1h-4zm-6-5h7v1H9zm-6-2h2v1H3zm23-4h2v1h-2zm-5-4h3v1h-3zm-2-8h2v1h-2zM9 3h1v1H9zm2 5h1v1h-1zm10 1h1v1h-1zm-2 3h1v1h-1zm0 6h1v1h-1zm-2-2h1v1h-1zm3 1h1v1h-1zm0 2h1v6h-1zm4-2h1v1h-1zm4 4h1v1h-1z"/><path fill="#fff" d="M28 20h1v1h-1zM2 12h1v1H2zm2 0h3v1H4zm16-3h1v1h-1zM10 8h1v3h-1zM9 4h1v4H9zM8 5h1v8H8zm4 3h3v1h-3zm-1 1h6v1h-6zm8 0h1v3h-1zm-2 6h1v1h-1zM2 22h2v1H2zm1 1h2v1H3zm4-8h3v1H7zm-6-2h8v2H1zm9 0h8v2h-8zm1 2h6v2h-6zm0-5h8v3h-8zm-1 7h1v1h-1zm-9 6h2v4H1zm25-2h2v1h-2zm-4-1h1v1h-1zm2-2h1v2h-1zm-1 2h3v2h-3zM9 25h6v1H9zm-1-2h2v2H8zm9 4h2v4h-2zm-2 0h1v4h-1zm-9-4h2v8H6zm10 2h3v2h-3zm4-7h1v1h-1zM9 11h1v2H9zM5 3h1v2H5zM3 9h4v1H3zm-1 1h4v1H2zm-1 1h5v1H1zM4 1h1v2H4zm3 7h1v5H7zM2 6h5v2H2zm17 13h1v6h-1zm2-2h3v3h-3zM5 16h5v7H5zm5 2h9v7h-9z"/><path fill="#000" d="M22 21h1v1h-1zm-7 4h1v1h-1zm1 2h1v4h-1zm5-7h1v1h-1zm8 0h1v1h-1zm-1-1h2v1h-2zM1 22h1v1H1zm9-18h1v4h-1zm-9 8h1v1H1zm2 0h1v1H3zm-2-2h1v1H1zm1-2h1v2H2zm0-3h6v1H2zm1 3h4v1H3zm-2 7h6v1H1zm22 7h5v1h-5zm-12-5h8v1h-8zM3 1h1v2H3zm2 0h1v2H5zM4 3h1v2H4zM1 6h1v2H1zm9 5h1v2h-1zm10-1h1v2h-1zm-2 3h1v3h-1zm1 12h1v6h-1zM0 23h1v4H0zm14 4h1v5h-1zm-6-2h1v6H8zm-3-2h1v9H5z"/><path fill="#000" d="M4 15h1v8H4zm5-2h1v2H9zm1 2h1v2h-1zM9 8h1v3H9zm-3 2h1v2H6zM3 25h1v2H3zm22-7h1v2h-1zM7 6h1v2H7zm-7 5h1v4H0zm6-8h1v2H6z"/></svg>